# xmcd
#
# Track frame offsets:
#      150
#      15285
#      31763
#      47129
#      64588
#      74402
#      88623
#      103216
#
# Disc length: 1514 seconds
#
# Revision: 0
# Processed by: cddbd v1.5.1PL0 Copyright (c) Steve Scherf et al.
# Submitted via: SoundClick v1.0
#
DISCID=5f05e808
DTITLE=Artist Bill "Sax Man" - AlbumSax gone country
DYEAR=1900
DGENRE=
TTITLE0=My Shoes Keep Walking Back To You
TTITLE1=If Tomorrow Never Comes
TTITLE2=Tennessee Waltz
TTITLE3=Just Out Of Reach
TTITLE4=Tijuana Taxi
TTITLE5=When I Dream
TTITLE6=Something
TTITLE7=Paper Roses
EXTD=
EXTT0=
EXTT1=
EXTT2=
EXTT3=
EXTT4=
EXTT5=
EXTT6=
EXTT7=
PLAYORDER=
